<?xml version="1.0" encoding="UTF-8" standalone="no"?> <!-- Created with Vectornator for iOS (http://vectornator.io/) --><!DOCTYPE svg PUBLIC "-//W3C//DTD SVG 1.1//EN" "http://www.w3.org/Graphics/SVG/1.1/DTD/svg11.dtd">
<svg height="100%" style="fill-rule:nonzero;clip-rule:evenodd;stroke-linecap:round;stroke-linejoin:round;" xmlns:xlink="http://www.w3.org/1999/xlink" xmlns="http://www.w3.org/2000/svg" xml:space="preserve" width="100%" xmlns:vectornator="http://vectornator.io" version="1.1" viewBox="0 0 600 600">
<metadata>
<vectornator:setting key="DimensionsVisible" value="1"/>
<vectornator:setting key="PencilOnly" value="0"/>
<vectornator:setting key="SnapToPoints" value="0"/>
<vectornator:setting key="GuidesVisible" value="1"/>
<vectornator:setting key="RulersVisible" value="1"/>
<vectornator:setting key="OutlineMode" value="0"/>
<vectornator:setting key="SnapToEdges" value="0"/>
<vectornator:setting key="CMYKEnabledKey" value="0"/>
<vectornator:setting key="DisplayWhiteBackground" value="0"/>
<vectornator:setting key="doHistoryDisabled" value="0"/>
<vectornator:setting key="TimeLapseWatermarkDisabled" value="0"/>
<vectornator:setting key="SnapToGuides" value="1"/>
<vectornator:setting key="Units" value="Pixels"/>
<vectornator:setting key="SnapToGrid" value="1"/>
<vectornator:setting key="DynamicGuides" value="0"/>
<vectornator:setting key="IsolateActiveLayer" value="0"/>
</metadata>
<defs/>
<g id="레이어 1" vectornator:layerName="레이어 1">
<path vectornator:shadowColor="#000000" vectornator:shadowOpacity="0.333" vectornator:shadowRadius="10" d="M115.747+22.5892L115.747+279.923C68.8662+307.525+40+345.069+40+386.477C40+471.267+160.877+540+309.994+540C459.112+540+580+471.267+580+386.477C580+348.244+555.382+313.298+514.714+286.429L514.714+29.8432L492.953+29.8432L492.953+273.621C470.684+261.947+444.98+252.36+416.763+245.444C419.144+240.502+420.413+235.309+420.413+229.962C420.413+196.26+370.074+168.938+307.977+168.938C245.88+168.938+195.541+196.26+195.541+229.962C195.541+235.645+197+241.143+199.678+246.362C177.142+252.108+156.264+259.577+137.509+268.442L137.509+22.5892L115.747+22.5892Z" vectornator:shadowOffset="10" fill="#4a382c" opacity="1" vectornator:shadowAngle="1.5708"/>
<path vectornator:shadowColor="#000000" vectornator:shadowOpacity="0.333" vectornator:shadowRadius="10" d="M307.977+182.176C257.899+182.176+217.302+204.91+217.302+232.954C217.302+241.017+220.749+248.613+226.721+255.384C128.255+274.347+57.7155+325.332+57.7155+385.287C57.7155+461.405+171.385+523.112+311.604+523.112C451.823+523.112+565.492+461.406+565.492+385.287C565.492+324.069+491.945+272.2+390.218+254.228C395.573+247.75+398.651+240.562+398.651+232.954C398.651+204.91+358.055+182.176+307.977+182.176Z" vectornator:shadowOffset="10" fill="#856d5c" opacity="1" vectornator:shadowAngle="1.5708"/>
</g>
</svg>
