<?xml version="1.0" encoding="UTF-8" standalone="no"?> <!-- Created with Vectornator for iOS (http://vectornator.io/) --><!DOCTYPE svg PUBLIC "-//W3C//DTD SVG 1.1//EN" "http://www.w3.org/Graphics/SVG/1.1/DTD/svg11.dtd">
<svg height="100%" style="fill-rule:nonzero;clip-rule:evenodd;stroke-linecap:round;stroke-linejoin:round;" xmlns:xlink="http://www.w3.org/1999/xlink" xmlns="http://www.w3.org/2000/svg" xml:space="preserve" width="100%" xmlns:vectornator="http://vectornator.io" version="1.1" viewBox="0 0 1050 1400">
<metadata>
<vectornator:setting key="DimensionsVisible" value="1"/>
<vectornator:setting key="PencilOnly" value="0"/>
<vectornator:setting key="SnapToPoints" value="0"/>
<vectornator:setting key="OutlineMode" value="0"/>
<vectornator:setting key="GuidesVisible" value="1"/>
<vectornator:setting key="RulersVisible" value="1"/>
<vectornator:setting key="SnapToEdges" value="0"/>
<vectornator:setting key="CMYKEnabledKey" value="0"/>
<vectornator:setting key="DisplayWhiteBackground" value="0"/>
<vectornator:setting key="doHistoryDisabled" value="0"/>
<vectornator:setting key="TimeLapseWatermarkDisabled" value="0"/>
<vectornator:setting key="SnapToGuides" value="1"/>
<vectornator:setting key="DynamicGuides" value="0"/>
<vectornator:setting key="Units" value="Pixels"/>
<vectornator:setting key="IsolateActiveLayer" value="0"/>
<vectornator:setting key="SnapToGrid" value="0"/>
</metadata>
<defs/>
<g id="레이어 1" vectornator:layerName="레이어 1">
<path vectornator:shadowColor="#000000" vectornator:shadowOpacity="0.333" vectornator:shadowRadius="10" d="M343.746+652.027C336.257+652.15+330.436+653.186+328.473+656.09C323.238+663.833+330.24+666.595+331.333+671.936C336.262+696.22+338.599+721.676+338.435+746.974C340.995+775.807+341.43+806.506+339.315+834.399C338.599+843.838+337.022+853.662+334.664+864.481C332.643+873.75+330.602+881.656+326.367+896.981C322.079+912.502+320.627+917.921+318.856+925.552C317.571+931.086+316.393+936.635+314.739+944.823C314.491+946.052+314.3+946.936+313.828+949.289C308.118+977.685+305.029+990.508+299.088+1006.43C296.801+1012.56+289.995+1027.4+289.974+1027.45C284.951+1038.24+282.869+1043+280.829+1048.9C268.235+1085.34+255.85+1115.11+241.199+1142.4C231.86+1159.8+221.631+1175.8+210.495+1190.68C243.529+1188.74+276.254+1187.7+308.799+1187.66C371.584+1187.59+433.895+1191.11+497.425+1198.2L495.508+1202.13L495.508+1331.66L975.37+1330.05L976.721+1330.35L1045.39+1290.93L1044.04+1199.28L996.866+1178.36L969.839+1221.13L968.55+1202.13L698.496+970.742C709.024+964.729+718.386+958.632+725.618+952.982C729.36+950.058+761.008+916.8+758.459+916.789C745.651+916.734+737.341+910.041+737.34+910.041L706.667+887.647C706.667+887.647+694.136+874.423+690.797+871.968C690.861+871.906+690.889+871.863+690.954+871.801C708.286+856.904+722.99+839.856+733.883+820.936C742.184+806.521+760.408+783.797+756.637+767.42C754.892+759.846+740.318+758.417+733.883+755.065C713.168+744.272+691.909+734.805+670.369+725.453C652.269+717.594+638.73+710.395+614.711+700.306C588.782+687.793+590.863+690.037+568.576+681.236C563.134+678.871+541.321+675.788+536.144+673.716C529.328+672.552+523.555+671.686+515.244+670.358C513.347+670.056+508.14+668.574+504.371+667.975C484.278+664.778+477.466+664.195+466.155+662.133C439.519+657.277+412.843+654.714+384.696+654.277C373.306+654.1+356.229+651.823+343.746+652.027Z" vectornator:shadowOffset="10" fill="#2e263f" opacity="1" vectornator:shadowAngle="1.5708"/>
<path vectornator:shadowColor="#000000" vectornator:shadowOpacity="0.333" vectornator:shadowRadius="10" d="M873.128+1018.89L985.689+908.191L994.861+1197.9L878.965+1344.05L873.128+1018.89Z" vectornator:shadowOffset="10" fill="#a99784" opacity="1" vectornator:shadowAngle="1.5708"/>
<g vectornator:shadowOffset="10" vectornator:shadowOpacity="0.333" vectornator:shadowAngle="1.5708" vectornator:shadowColor="#000000" opacity="1" vectornator:shadowRadius="10">
<path vectornator:shadowColor="#000000" vectornator:shadowOpacity="0.333" vectornator:shadowRadius="10" d="M515.131+502.53C474.425+500.542+423.191+526.525+398.477+561.152C393.051+565.965+386.858+573.306+381.319+581.384C374.298+591.623+368.327+603.046+366.3+612.002C361.86+631.614+361.494+677.8+372.394+693.945C377.198+701.06+384.044+710.952+392.092+719.509L342.996+919.343L451.508+991.841L517.355+820.585C536.144+829.554+575.674+859.644+577.839+844.946C581.764+818.3+589.602+806.502+599.331+787.93C606.375+774.484+613.147+755.058+613.147+755.058L647.037+760.83C647.037+760.83+645.51+676.234+641.728+667.201C642.001+665.809+660.562+646.693+659.283+629.378C655.88+583.301+646.971+568.566+639.842+558.941C630.483+546.307+630.238+550.294+625.461+544.856C605.655+520.94+568.851+508.771+521+503.02C519.071+502.788+517.114+502.627+515.131+502.53Z" vectornator:shadowOffset="10" fill="#958686" opacity="1" vectornator:shadowAngle="1.5708"/>
<path vectornator:shadowColor="#000000" vectornator:shadowOpacity="0.333" vectornator:shadowRadius="10" d="" vectornator:shadowOffset="10" fill="none" opacity="1" vectornator:shadowAngle="1.5708"/>
</g>
<path vectornator:shadowColor="#000000" vectornator:shadowOpacity="0.333" vectornator:shadowRadius="10" d="M660.567+1234.66L778.695+1211.88L806.893+1225.47L835.423+1239.22L846.794+1283.19L836.828+1343.44L802.193+1375.15L664.391+1353.16L660.567+1234.66Z" vectornator:shadowOffset="10" fill="#958686" opacity="1" vectornator:shadowAngle="1.5708"/>
<path vectornator:shadowColor="#000000" vectornator:shadowOpacity="0.333" vectornator:shadowRadius="10" d="M905.47+1184.93L998.491+1177.26L1018.1+1189.51L1029.67+1214.51L1033.45+1242.2L1028.49+1268.41L1016.78+1299.38L916.233+1320.34L897.613+1287.39L890.097+1256L893.986+1215.19L905.47+1184.93Z" vectornator:shadowOffset="10" fill="#958686" opacity="1" vectornator:shadowAngle="1.5708"/>
<path d="M798.797+1221.54L808.862+1226.88L835.327+1239.13L848.307+1282.91L842.055+1315.86L836.345+1343.88L800.837+1377.57L780.867+1371.2L818.665+1325.61L821.611+1263.83L798.797+1221.54Z" opacity="1" fill="#7f7070"/>
<path d="M905.792+1184.65L948.264+1181.01L997.75+1176.97L1017.62+1185.05L1027.36+1212.94C1027.36+1212.94+998.773+1195.7+965.653+1195.09C932.532+1194.49+894.882+1210.52+894.882+1210.52L905.792+1184.65Z" opacity="1" fill="#7f7070"/>
<path vectornator:shadowColor="#000000" vectornator:shadowOpacity="0.333" vectornator:shadowRadius="10" d="M988.088+1281.98L988.093+1281.98L988.093+1283.2L988.088+1283.2L988.088+1281.98Z" vectornator:shadowOffset="10" fill="#665c5c" opacity="1" vectornator:shadowAngle="1.5708"/>
<g vectornator:shadowOffset="10" vectornator:shadowOpacity="0.333" vectornator:shadowAngle="1.5708" vectornator:shadowColor="#000000" opacity="1" vectornator:shadowRadius="10">
<path vectornator:shadowColor="#000000" vectornator:shadowOpacity="0.333" vectornator:shadowRadius="10" d="M368.037+525.246L647.328+623.363L645.826+711.747L352.271+608.957C352.271+608.957+350.061+606.819+351.52+586.764C353.022+566.128+368.037+525.246+368.037+525.246Z" vectornator:shadowOffset="10" fill="#665c5c" opacity="1" vectornator:shadowAngle="1.5708"/>
<path/>
</g>
<g vectornator:shadowOffset="10" vectornator:shadowOpacity="0.333" vectornator:shadowAngle="1.5708" vectornator:shadowColor="#000000" opacity="1" vectornator:shadowRadius="10">
<path vectornator:shadowColor="#000000" vectornator:shadowOpacity="0.333" vectornator:shadowRadius="10" d="M419.526+688.192L518.792+820.119L514.883+828.889C514.883+828.889+487.821+830.171+472.159+828.804C456.498+827.437+451.153+824.319+451.153+824.319" vectornator:shadowOffset="10" fill="#665c5c" opacity="1" vectornator:shadowAngle="1.5708"/>
<path/>
</g>
<path vectornator:shadowColor="#000000" vectornator:shadowOpacity="0.333" vectornator:shadowRadius="10" d="M496.538+599.744C489.792+602.543+473.981+618.672+473.981+618.672L465.753+655.279L456.811+706.214L439.139+678.598L442.674+632.897C442.674+632.897+440.704+608.664+421.703+613.591C391.913+621.315+399.486+645.249+403.56+666.379C405.801+678.001+419.069+683.644+424.295+694.483C425.467+696.915+389.658+733.341+389.658+733.341C389.658+733.341+389.906+718.32+388.48+717.212C384.276+713.941+378.489+707.923+375.285+703.77C368.641+695.156+366.529+683.21+361.59+672.966C350.733+650.443+347.14+579.649+358.302+560.354C365.739+547.498+375.205+533.113+384.394+521.199C385.877+519.277+417.032+487.402+429.106+478.009C440.37+469.247+469.096+466.303+483.721+463.775C494.438+461.922+525.264+457.432+535.535+459.998C616.814+480.306+617.18+486.542+647.708+531.323C661.513+551.573+665.384+600.834+661.824+622.99C660.444+631.577+650.389+605.408+642.564+610.277C635.332+614.777+615.936+601.284+607.195+599.018C570.499+589.502+568.768+592.843+531.206+592.843" vectornator:shadowOffset="10" fill="#3a3a3a" opacity="1" vectornator:shadowAngle="1.5708"/>
<g vectornator:shadowOffset="10" vectornator:shadowOpacity="0.333" vectornator:shadowAngle="1.5708" vectornator:shadowColor="#000000" opacity="1" vectornator:shadowRadius="10">
<path vectornator:shadowColor="#000000" vectornator:shadowOpacity="0.333" vectornator:shadowRadius="10" d="M328.32+656.38C313.846+684.48+348.151+742.715+328.338+768.336C284.191+825.424+202.247+834.503+151.57+876.34C124.864+898.386+35.5201+1244.18+35.5201+1244.18C35.5201+1244.18+23.143+1290.85+26.5308+1317.92L49.4127+1354.37C53.6059+1387.87+103.91+1395.13+126.231+1389.97L471.893+1379.22C481.897+1376.91+515.733+1367.71+546.71+1372.92C584.85+1379.33+655.177+1372.63+691.477+1371.02C696.4+1370.81+718.9+1374.67+724.054+1371.26C760.132+1347.36+733.26+1231.21+733.26+1231.21L728.717+1198.41C728.717+1198.41+636.457+1191.18+625.09+1193.81L584.803+1181.02C583.44+1180.31+499.878+1158.67+499.878+1158.67C499.878+1158.67+466.212+980.191+470.705+963.413C479.292+931.348+500.195+872.995+520.542+844.352C522.48+841.624+528.261+827.768+528.261+827.768C528.261+827.768+453.695+832.884+453.695+822.633C453.695+820.62+515.69+744.085+516.683+714.611C516.771+712.004+516.132+710.197+516.132+710.197C516.132+710.197+505.423+710.485+499.73+710.77C499.335+710.79+499.031+710.807+498.317+710.844C484.957+711.523+478.133+711.44+470.114+709.976C465.896+709.756+461.893+709.284+457.795+708.498C451.233+707.24+445.523+705.306+437.12+702.053C419.777+698.299+402.524+693.159+386.709+686.428C385.011+685.879+383.182+685.376+381.437+684.766C369.497+680.591+359.341+675.704+350.235+669.437C349.084+668.645+347.714+667.786+346.049+666.796C344.837+666.076+343.514+665.316+341.69+664.285C341.345+664.09+337.567+661.971+336.831+661.551C333.492+659.647+330.791+657.992+328.32+656.38Z" vectornator:shadowOffset="10" fill="#41345c" opacity="1" vectornator:shadowAngle="1.5708"/>
<path vectornator:shadowColor="#000000" vectornator:shadowOpacity="0.333" vectornator:shadowRadius="10" d="" vectornator:shadowOffset="10" fill="none" opacity="1" vectornator:shadowAngle="1.5708"/>
</g>
<path vectornator:shadowColor="#000000" vectornator:shadowOpacity="0.333" vectornator:shadowRadius="10" d="M359.746+936.957L230.047+1151.72L207.536+1185.91L501.551+1159.03L293.506+1124.02L389.33+1056.98C389.33+1056.98+360.811+1058.19+353.417+1028.19C346.023+998.184+359.746+936.957+359.746+936.957Z" vectornator:shadowOffset="10" fill="#30224c" opacity="1" vectornator:shadowAngle="1.5708"/>
<g opacity="1">
<path d="M234.042+831.211C234.042+831.211+272.797+815.772+297.106+796.496C321.416+777.22+334.452+758.126+334.452+758.126C334.452+758.126+345.627+792.528+360.16+809.155C374.693+825.781+419.659+835.064+419.659+835.064" opacity="1" fill="#30224c"/>
<path/>
</g>
<g vectornator:shadowOffset="10" vectornator:shadowOpacity="0.333" vectornator:shadowAngle="1.5708" vectornator:shadowColor="#000000" opacity="1" vectornator:shadowRadius="10">
<path vectornator:shadowColor="#000000" vectornator:shadowOpacity="0.333" vectornator:shadowRadius="10" d="M108.311+1391.35L528.159+1297.66L718.684+1372.05" vectornator:shadowOffset="10" fill="#30224c" opacity="1" vectornator:shadowAngle="1.5708"/>
<path/>
</g>
<g vectornator:shadowOffset="10" vectornator:shadowOpacity="0.333" vectornator:shadowAngle="1.5708" vectornator:shadowColor="#000000" opacity="1" vectornator:shadowRadius="10">
<path vectornator:shadowColor="#000000" vectornator:shadowOpacity="0.333" vectornator:shadowRadius="10" d="M450.597+1152.5C450.31+1152.65+450.022+1152.81+449.734+1152.95C449.918+1152.89+450.127+1152.86+450.309+1152.8L450.597+1152.5Z" vectornator:shadowOffset="10" fill="#909090" opacity="1" vectornator:shadowAngle="1.5708"/>
<path/>
</g>
</g>
<g id="레이어 2" vectornator:layerName="레이어 2">
<path d="M583.474+486.524C589.14+439.878+605.069+388.321+630.334+390.869C655.598+393.417+678.716+432.256+673.049+478.902C667.382+525.548+789.891+410.09+808.419+445.324C811.101+450.425+802.529+475.95+751.39+523.042C709.64+561.488+639.045+606.226+621.533+599.841C601.862+592.668+581.269+504.67+583.474+486.524Z" opacity="1" fill="#7e612d"/>
<path vectornator:shadowColor="#000000" vectornator:shadowOpacity="0.333" vectornator:shadowRadius="10" d="M556.52+480.676C563.942+428.322+582.947+370.918+611.121+375.002C639.294+379.086+664.22+424.012+656.798+476.367C649.376+528.721+790.281+401.93+810.162+442.569C816.806+456.15+650.252+603.864+615.99+589.676C594.176+580.642+553.633+501.043+556.52+480.676Z" vectornator:shadowOffset="10" fill="#bf9343" opacity="1" vectornator:shadowAngle="1.5708"/>
<g opacity="1">
<path d="M677.265+152.988C686.84+156.413+694.132+150.654+694.132+150.654C705.263+153.094+687.31+169.414+685.099+178.467L682.115+244.514C679.904+253.567+669.087+258.928+657.956+256.488L657.956+256.488C646.824+254.049+639.593+244.732+641.805+235.679L664.319+173.682C665.61+168.399+650.122+155.147+653.4+143.837C656.678+132.527+661.093+147.203+677.265+152.988Z" opacity="1" fill="#fff0d5"/>
<path d="" opacity="1" fill="none"/>
</g>
<g opacity="1">
<path d="M589.923+298.558C612.573+266.95+629.952+210.313+651.21+194.951C657.624+190.316+670.896+196.073+676.572+199.045C680.348+201.023+686.88+199.274+688.318+203.955C691.366+213.881+686.266+234.513+687.097+252.971C688.416+282.241+692.728+319.453+677.435+340.794C667.158+355.136+677.485+381.396+662.512+393.309C634.529+415.572+576.101+415.061+560.151+406.708C542.595+397.514+497.495+345.716+508.136+317.084C512.336+305.782+581.579+310.203+589.923+298.558Z" opacity="1" fill="#bf9343"/>
<path d="" opacity="1" fill="none"/>
</g>
<path d="M600.309+254.835L600.309+254.835C604.738+251.695+627.216+247.06+640.235+256.869C653.254+266.679+643.366+260.995+673.629+295.619L680.315+318.863L681.201+334.883C681.201+334.883+672.585+393.443+662.059+400.906L660.409+390.823C649.883+398.287+636.878+394.219+631.362+381.738L591.238+290.949C585.721+278.468+589.783+262.299+600.309+254.835Z" opacity="1" fill="#7e612d"/>
<path vectornator:shadowColor="#000000" vectornator:shadowOpacity="0.333" vectornator:shadowRadius="10" d="M407.533+412.486C451.561+318.815+500.674+256.631+559.772+221.956C604.983+195.43+667.059+320.571+685.653+453.288C694.176+514.12+691.601+566.771+680.627+633.333C672.307+683.795+630.595+592.423+520.589+580.165C369.241+563.3+345.439+596.037+345.315+592.35C345.274+591.12+341.88+573.43+344.065+563.758C355.066+515.084+384.246+462.031+407.533+412.486Z" vectornator:shadowOffset="10" fill="#bf9343" opacity="1" vectornator:shadowAngle="1.5708"/>
<path d="M399.522+437.782C411.597+383.182+434.391+323.532+458.729+328.363C483.066+333.195+500.219+380.67+488.144+435.27C476.069+489.87+617.612+372.495+630.784+415.387C632.691+421.596+603.039+465.513+565.948+495.76C517.413+535.34+437.066+582.965+420.844+574.169C412.107+569.432+367.996+534.549+364.281+505.732C360.247+474.445+397.077+448.839+399.522+437.782Z" opacity="1" fill="#7e612d"/>
<path vectornator:shadowColor="#000000" vectornator:shadowOpacity="0.333" vectornator:shadowRadius="10" d="M350.056+467.003C357.478+414.649+376.483+357.245+404.657+361.329C432.83+365.413+457.756+410.339+450.334+462.694C442.912+515.048+583.816+388.257+603.698+428.895C609.511+440.778+489.123+547.362+435.972+564.334C428.375+566.759+422.151+567.354+417.866+565.58C396.052+556.546+347.168+487.37+350.056+467.003Z" vectornator:shadowOffset="10" fill="#bf9343" opacity="1" vectornator:shadowAngle="1.5708"/>
<g opacity="1">
<path d="M465.08+106.062C475.29+106.154+479.087+98.3413+479.087+98.3413C490.223+96.9953+481.891+118.249+484.213+127.502L512.937+190.705C515.259+199.959+508.114+208.551+496.978+209.897L496.978+209.897C485.842+211.243+474.933+204.833+472.611+195.579L463.316+129.797C461.961+124.397+441.781+116.982+439.342+105.253C436.903+93.5245+447.837+105.907+465.08+106.062Z" opacity="1" fill="#fff0d5"/>
<path d="" opacity="1" fill="none"/>
</g>
<g opacity="1">
<path d="M486.058+294.69C491.103+259.101+480.489+202.637+491.622+182.115C494.981+175.922+478.028+157.556+484.914+157.047C491.8+156.539+496.229+147.026+499.54+150.788C506.563+158.766+539.01+206.7+547.97+223.057C562.18+248.995+582.478+281.142+579.071+305.171C576.782+321.319+597.276+341.712+589.922+357.15C583.847+369.907+584.988+375.642+570.764+383.307C552.815+392.98+518.84+402.83+509.218+401.435C490.236+398.683+428.868+366.243+425.073+337.114C423.575+325.616+484.199+307.8+486.058+294.69Z" opacity="1" fill="#82632c"/>
<path d="" opacity="1" fill="none"/>
</g>
<g opacity="1">
<path d="M456.006+271.806C461.279+234.611+449.93+175.561+461.678+154.128C465.223+147.661+479.854+148.74+486.354+149.682C490.679+150.309+495.701+146.523+499.215+150.462C506.666+158.816+511.903+179.924+521.423+197.043C536.519+224.187+558.073+257.835+554.513+282.948C552.12+299.825+573.86+321.185+566.104+337.311C551.609+367.448+499.002+386.095+480.737+383.447C460.632+380.532+395.59+346.497+391.515+316.037C389.906+304.014+454.063+285.509+456.006+271.806Z" opacity="1" fill="#bf9343"/>
<path d="M496+147.906C493.705+147.618+491.252+148.478+489+148.812C487.507+149.034+486.145+148.802+484.656+148.625C479.554+148.018+474.219+147.771+469.156+148.812C466.811+149.295+464.393+150.078+462.562+151.688C460.468+153.529+459.46+156.553+458.625+159.125C456.834+164.644+456.116+170.484+455.688+176.25C454.993+185.587+455.173+194.993+455.438+204.344C455.794+216.941+456.45+229.521+456.562+242.125C456.622+248.756+456.523+255.414+456.062+262.031C455.92+264.076+455.727+266.119+455.5+268.156C455.412+268.944+455.505+268.153+455.062+271.688C454.994+272.206+455.357+272.682+455.875+272.75C456.393+272.818+456.869+272.456+456.938+271.938C457.092+270.762+456.957+271.153+457.094+270.75C457.352+269.987+457.287+269.144+457.375+268.344C457.557+266.698+457.718+265.057+457.844+263.406C458.28+257.699+458.43+251.973+458.438+246.25C458.465+225.314+456.47+204.406+457.094+183.469C457.322+175.796+457.827+167.864+460.031+160.469C460.499+158.898+461.055+157.36+461.75+155.875C462.395+154.498+463.112+153.351+464.375+152.469C466.202+151.192+468.458+150.602+470.625+150.25C474.156+149.676+477.786+149.715+481.344+149.969C483.755+150.141+486.238+150.772+488.656+150.5C491.24+150.209+494.518+148.729+497.031+149.812C498.513+150.451+499.491+151.972+500.375+153.25C502.043+155.66+503.371+158.296+504.625+160.938C508.91+169.964+512.116+179.462+516.312+188.531C519.963+196.42+524.455+203.891+528.75+211.438C533.929+220.537+539.071+229.679+543.531+239.156C546.345+245.134+548.923+251.222+550.906+257.531C552.834+263.664+554.238+270.048+554.344+276.5C554.37+278.103+554.313+279.717+554.156+281.312C554.033+282.568+553.845+283.8+553.812+285.062C553.744+287.737+554.164+290.39+554.844+292.969C557.213+301.963+562.155+310.025+565.188+318.781C566.87+323.639+568.078+329.024+566.781+334.125C566.175+336.508+564.974+338.684+563.719+340.781C561.864+343.879+559.666+346.758+557.25+349.438C551.252+356.09+543.963+361.553+536.312+366.156C526.424+372.106+515.676+376.755+504.594+379.969C500.024+381.294+495.381+382.371+490.656+382.969C487.587+383.357+484.43+383.605+481.344+383.25C478.262+382.895+475.249+381.966+472.312+381C468.547+379.761+464.853+378.3+461.219+376.719C449.566+371.648+438.336+365.431+427.812+358.312C421.226+353.857+414.896+348.977+409.094+343.531C404.301+339.033+399.797+334.076+396.375+328.438C394.563+325.452+393.054+322.268+392.188+318.875C391.839+317.51+391.345+315.938+391.75+314.531C392.271+312.719+393.78+311.265+395.156+310.062C398.235+307.373+401.853+305.259+405.406+303.281C406.563+302.637+407.735+302.024+408.906+301.406C417.276+296.992+425.871+293.022+434.281+288.688C435.549+288.034+436.798+287.329+438.062+286.656C436.494+287.517+434.874+288.279+433.281+289.094C423.44+294.13+413.26+298.57+403.656+304.062C400.16+306.062+396.467+308.246+393.656+311.188C392.59+312.303+391.519+313.687+391.375+315.281C391.294+316.177+391.534+317.103+391.719+317.969C392.071+319.616+392.593+321.218+393.219+322.781C395.515+328.516+399.267+333.594+403.375+338.156C410.461+346.024+418.861+352.681+427.594+358.625C438.763+366.228+450.733+372.871+463.188+378.125C466.7+379.607+470.261+380.972+473.906+382.094C476.924+383.022+480.02+383.828+483.188+383.969C488.774+384.216+494.398+383.174+499.812+381.906C508.093+379.967+516.18+377.038+523.906+373.5C537.577+367.239+551.363+358.548+560.75+346.594C562.535+344.321+564.151+341.914+565.531+339.375C566.228+338.093+566.889+336.796+567.344+335.406C568.154+332.929+568.358+330.308+568.156+327.719C567.845+323.721+566.636+319.853+565.219+316.125C562.237+308.285+557.993+300.873+555.875+292.719C555.23+290.234+554.801+287.668+554.875+285.094C554.911+283.858+555.125+282.666+555.25+281.438C555.416+279.801+555.459+278.144+555.438+276.5C555.352+269.939+553.938+263.432+552+257.188C550.024+250.819+547.469+244.664+544.656+238.625C540.219+229.1+535.124+219.901+529.969+210.75C526.333+204.296+522.494+197.912+519.25+191.25C516.412+185.421+513.949+179.419+511.531+173.406C509.762+169.005+508.048+164.577+506.031+160.281C504.641+157.32+503.145+154.375+501.219+151.719C500.381+150.563+499.478+149.348+498.219+148.625C497.5+148.212+496.765+148.002+496+147.906ZM438.062+286.656C440.073+285.586+442.05+284.457+444+283.281C443.16+283.764+442.31+284.239+441.469+284.719C440.336+285.364+439.205+286.029+438.062+286.656ZM444+283.281C444.291+283.114+444.587+282.953+444.875+282.781C445.226+282.572+445.692+282.266+446.156+281.969C445.451+282.423+444.72+282.847+444+283.281ZM446.156+281.969C446.721+281.605+447.321+281.286+447.875+280.906C449.037+280.11+450.181+279.261+451.281+278.344C450.175+279.256+448.999+280.089+447.844+280.875C447.392+281.183+446.771+281.575+446.156+281.969ZM456+271.812C456+271.812+455.879+272.049+455.938+272.25C455.946+272.278+455.89+272.423+455.844+272.562C455.903+272.335+456+271.813+456+271.812ZM455.531+273.312C455.369+273.671+455.149+274.012+454.938+274.344C455.107+274.076+455.299+273.816+455.438+273.531C455.47+273.464+455.499+273.385+455.531+273.312ZM454.562+274.938C453.824+275.947+452.915+276.814+451.969+277.656C452.79+276.919+453.633+276.204+454.312+275.344C454.411+275.22+454.469+275.065+454.562+274.938Z" opacity="1" fill="#382c23"/>
</g>
</g>
</svg>
