<?xml version="1.0" encoding="UTF-8" standalone="no"?> <!-- Created with Vectornator for iOS (http://vectornator.io/) --><!DOCTYPE svg PUBLIC "-//W3C//DTD SVG 1.1//EN" "http://www.w3.org/Graphics/SVG/1.1/DTD/svg11.dtd">
<svg height="100%" style="fill-rule:nonzero;clip-rule:evenodd;stroke-linecap:round;stroke-linejoin:round;" xmlns:xlink="http://www.w3.org/1999/xlink" xmlns="http://www.w3.org/2000/svg" xml:space="preserve" width="100%" xmlns:vectornator="http://vectornator.io" version="1.1" viewBox="0 0 1050 1050">
<metadata>
<vectornator:setting key="DimensionsVisible" value="1"/>
<vectornator:setting key="PencilOnly" value="0"/>
<vectornator:setting key="SnapToPoints" value="0"/>
<vectornator:setting key="OutlineMode" value="0"/>
<vectornator:setting key="CMYKEnabledKey" value="0"/>
<vectornator:setting key="RulersVisible" value="1"/>
<vectornator:setting key="SnapToEdges" value="0"/>
<vectornator:setting key="GuidesVisible" value="1"/>
<vectornator:setting key="DisplayWhiteBackground" value="0"/>
<vectornator:setting key="doHistoryDisabled" value="0"/>
<vectornator:setting key="SnapToGuides" value="1"/>
<vectornator:setting key="TimeLapseWatermarkDisabled" value="0"/>
<vectornator:setting key="DynamicGuides" value="0"/>
<vectornator:setting key="Units" value="Pixels"/>
<vectornator:setting key="SnapToGrid" value="0"/>
<vectornator:setting key="IsolateActiveLayer" value="0"/>
</metadata>
<defs/>
<g id="레이어 8" vectornator:layerName="레이어 8" visibility="hidden">
<path d="M-12.8844-222.138L2373.31-222.138L2373.31+1232.25L-12.8844+1232.25L-12.8844-222.138Z" opacity="1" fill="#5e6257"/>
</g>
<g id="레이어 4" vectornator:layerName="레이어 4">
<path vectornator:shadowColor="#000000" vectornator:shadowOpacity="0.333" vectornator:shadowRadius="10" d="M332.865+256.25C325.375+256.372+319.554+257.408+317.591+260.312C312.357+268.055+319.359+270.818+320.451+276.159C325.38+300.443+327.717+325.898+327.554+351.196C330.113+380.029+330.548+410.728+328.434+438.622C327.718+448.06+326.141+457.885+323.782+468.704C321.762+477.972+319.72+485.878+315.486+501.203C311.197+516.724+309.746+522.144+307.975+529.774C306.689+535.308+305.512+540.858+303.858+549.046C303.609+550.275+303.418+551.158+302.946+553.511C297.236+581.908+294.147+594.731+288.207+610.653C285.919+616.786+279.114+631.627+279.093+631.67C274.069+642.465+271.988+647.223+269.948+653.124C257.354+689.558+244.969+719.33+230.318+746.627C220.979+764.026+210.749+780.027+199.614+794.906C232.648+792.964+265.373+791.92+297.918+791.884C360.703+791.815+423.014+795.332+486.544+802.426L484.627+806.354L484.627+935.881L964.488+934.27L965.84+934.572L1034.51+895.157L1033.16+803.5L985.985+782.584L958.957+825.357L957.669+806.354L687.615+574.964C698.142+568.951+707.505+562.855+714.737+557.204C718.479+554.28+750.126+521.023+747.578+521.012C734.77+520.957+726.459+514.263+726.459+514.263L695.786+491.87C695.786+491.87+683.254+478.645+679.915+476.191C679.98+476.128+680.008+476.086+680.072+476.023C697.405+461.126+712.109+444.078+723.002+425.159C731.302+410.743+749.527+388.019+745.755+371.642C744.011+364.069+729.436+362.64+723.002+359.287C702.286+348.494+681.027+339.027+659.488+329.675C641.388+321.817+627.848+314.618+603.83+304.529C577.901+292.016+579.982+294.259+557.695+285.459C552.252+283.093+530.44+280.01+525.262+277.938C518.446+276.774+512.673+275.908+504.363+274.581C502.465+274.278+497.258+272.797+493.489+272.197C473.397+269+466.584+268.417+455.274+266.355C428.637+261.499+401.961+258.936+373.814+258.499C362.425+258.322+345.348+256.045+332.865+256.25Z" vectornator:shadowOffset="10" fill="#2e263f" opacity="1" vectornator:shadowAngle="1.5708"/>
</g>
<g id="레이어 9" vectornator:layerName="레이어 9" visibility="hidden">
<path d="M-18.6482+1191.9L2478.98+1191.9L2478.98+1825.92L-18.6482+1825.92L-18.6482+1191.9Z" opacity="1" fill="#3b332e"/>
</g>
<g id="레이어 7" vectornator:layerName="레이어 7">
<path vectornator:shadowColor="#000000" vectornator:shadowOpacity="0.333" vectornator:shadowRadius="10" d="M862.247+623.108L974.808+512.413L983.98+802.123L868.083+948.275L862.247+623.108Z" vectornator:shadowOffset="10" fill="#a99784" opacity="1" vectornator:shadowAngle="1.5708"/>
</g>
<g id="레이어 2" vectornator:layerName="레이어 2">
<g vectornator:shadowOffset="10" vectornator:shadowOpacity="0.333" vectornator:shadowAngle="1.5708" vectornator:shadowColor="#000000" opacity="1" vectornator:shadowRadius="10">
<path vectornator:shadowColor="#000000" vectornator:shadowOpacity="0.333" vectornator:shadowRadius="10" d="M504.249+106.752C463.544+104.765+412.31+130.747+387.596+165.374C382.169+170.187+375.977+177.529+370.438+185.606C363.416+195.846+357.446+207.268+355.418+216.224C350.979+235.837+350.612+282.023+361.512+298.167C366.316+305.282+373.162+315.174+381.21+323.731L332.115+523.565L440.627+596.063L506.473+424.808C525.263+433.777+564.793+463.866+566.958+449.168C570.883+422.522+578.721+410.724+588.45+392.153C595.494+378.706+602.265+359.28+602.265+359.28L636.156+365.053C636.156+365.053+634.629+280.456+630.847+271.423C631.119+270.032+649.681+250.916+648.402+233.601C644.999+187.523+636.09+172.788+628.96+163.164C619.601+150.53+619.357+154.516+614.579+149.078C594.774+125.163+557.969+112.994+510.119+107.242C508.19+107.01+506.233+106.849+504.249+106.752Z" vectornator:shadowOffset="10" fill="#958686" opacity="1" vectornator:shadowAngle="1.5708"/>
<path vectornator:shadowColor="#000000" vectornator:shadowOpacity="0.333" vectornator:shadowRadius="10" d="" vectornator:shadowOffset="10" fill="none" opacity="1" vectornator:shadowAngle="1.5708"/>
</g>
<path vectornator:shadowColor="#000000" vectornator:shadowOpacity="0.333" vectornator:shadowRadius="10" d="M649.685+838.887L767.814+816.1L796.011+829.689L824.542+843.439L835.913+887.411L825.946+947.662L791.311+979.374L653.51+957.378L649.685+838.887Z" vectornator:shadowOffset="10" fill="#958686" opacity="1" vectornator:shadowAngle="1.5708"/>
<path vectornator:shadowColor="#000000" vectornator:shadowOpacity="0.333" vectornator:shadowRadius="10" d="M894.589+789.157L987.609+781.485L1007.22+793.736L1018.79+818.729L1022.57+846.418L1017.61+872.636L1005.9+903.604L905.351+924.565L886.731+891.615L879.216+860.226L883.104+819.417L894.589+789.157Z" vectornator:shadowOffset="10" fill="#958686" opacity="1" vectornator:shadowAngle="1.5708"/>
<path d="M787.916+825.762L797.981+831.107L824.445+843.355L837.425+887.133L831.174+920.083L825.464+948.103L789.956+981.793L769.985+975.425L807.784+929.828L810.73+868.05L787.916+825.762Z" opacity="1" fill="#7f7070"/>
<path d="M894.91+788.872L937.383+785.235L986.869+781.193L1006.74+789.276L1016.48+817.163C1016.48+817.163+987.892+799.918+954.771+799.313C921.651+798.708+884.001+814.743+884.001+814.743L894.91+788.872Z" opacity="1" fill="#7f7070"/>
<path vectornator:shadowColor="#000000" vectornator:shadowOpacity="0.333" vectornator:shadowRadius="10" d="M977.207+886.204L977.211+886.204L977.211+887.427L977.207+887.427L977.207+886.204Z" vectornator:shadowOffset="10" fill="#665c5c" opacity="1" vectornator:shadowAngle="1.5708"/>
</g>
<g id="레이어 6" vectornator:layerName="레이어 6">
<g vectornator:shadowOffset="10" vectornator:shadowOpacity="0.333" vectornator:shadowAngle="1.5708" vectornator:shadowColor="#000000" opacity="1" vectornator:shadowRadius="10">
<path vectornator:shadowColor="#000000" vectornator:shadowOpacity="0.333" vectornator:shadowRadius="10" d="M357.156+129.468L636.446+227.586L634.945+315.969L341.389+213.179C341.389+213.179+339.179+211.041+340.639+190.986C342.14+170.35+357.156+129.468+357.156+129.468Z" vectornator:shadowOffset="10" fill="#665c5c" opacity="1" vectornator:shadowAngle="1.5708"/>
<path/>
</g>
<g vectornator:shadowOffset="10" vectornator:shadowOpacity="0.333" vectornator:shadowAngle="1.5708" vectornator:shadowColor="#000000" opacity="1" vectornator:shadowRadius="10">
<path vectornator:shadowColor="#000000" vectornator:shadowOpacity="0.333" vectornator:shadowRadius="10" d="M408.645+292.414L507.91+424.341L504.001+433.111C504.001+433.111+476.939+434.393+461.278+433.026C445.617+431.659+440.272+428.542+440.272+428.542" vectornator:shadowOffset="10" fill="#665c5c" opacity="1" vectornator:shadowAngle="1.5708"/>
<path/>
</g>
</g>
<g id="레이어 5" vectornator:layerName="레이어 5">
<path vectornator:shadowColor="#000000" vectornator:shadowOpacity="0.333" vectornator:shadowRadius="10" d="M485.656+203.966C478.91+206.765+463.1+222.894+463.1+222.894L454.872+259.501L445.93+310.437L428.258+282.821L431.792+237.12C431.792+237.12+429.823+212.886+410.822+217.813C381.032+225.537+388.604+249.471+392.679+270.601C394.92+282.223+408.188+287.866+413.413+298.706C414.586+301.137+378.777+337.564+378.777+337.564C378.777+337.564+379.024+322.543+377.599+321.434C373.394+318.163+367.607+312.146+364.404+307.993C357.76+299.379+355.647+287.433+350.709+277.189C339.851+254.665+336.259+183.871+347.42+164.576C354.858+151.72+364.324+137.335+373.512+125.422C374.995+123.499+406.15+91.6239+418.225+82.2313C429.488+73.4695+458.215+70.5252+472.84+67.997C483.556+66.1444+514.383+61.6543+524.654+64.2206C605.933+84.5288+606.299+90.7642+636.827+135.546C650.631+155.796+654.503+205.056+650.942+227.212C649.562+235.8+639.507+209.63+631.682+214.5C624.451+219+605.055+205.507+596.314+203.24C559.618+193.725+557.887+197.065+520.324+197.065" vectornator:shadowOffset="10" fill="#3a3a3a" opacity="1" vectornator:shadowAngle="1.5708"/>
</g>
<g id="레이어 3" vectornator:layerName="레이어 3">
<g opacity="1">
<path d="M39.959+2160.44L46.3446+2160.44C49.2836+2160.44+51.6661+2162.82+51.6661+2165.76L51.6661+2165.76C51.6661+2168.7+49.2836+2171.08+46.3446+2171.08L39.959+2171.08C37.02+2171.08+34.6375+2168.7+34.6375+2165.76L34.6375+2165.76C34.6375+2162.82+37.02+2160.44+39.959+2160.44Z" opacity="1" fill="#a42f2f"/>
<path/>
</g>
<g vectornator:shadowOffset="10" vectornator:shadowOpacity="0.333" vectornator:shadowAngle="1.5708" vectornator:shadowColor="#000000" opacity="1" vectornator:shadowRadius="10">
<path vectornator:shadowColor="#000000" vectornator:shadowOpacity="0.333" vectornator:shadowRadius="10" d="M317.439+260.603C302.965+288.702+337.269+346.937+317.456+372.558C273.31+429.646+191.365+438.726+140.688+480.562C113.983+502.609+24.6387+848.398+24.6387+848.398C24.6387+848.398+12.2616+895.069+15.6493+922.14L38.5313+958.588C42.7245+992.096+93.0282+999.352+115.349+994.188L461.012+983.447C471.015+981.133+504.851+971.931+535.828+977.138C573.969+983.549+644.296+976.848+680.596+975.245C685.519+975.028+708.019+978.893+713.173+975.479C749.251+951.583+722.379+835.435+722.379+835.435L717.835+802.633C717.835+802.633+625.576+795.407+614.209+798.037L573.922+785.241C572.558+784.533+488.996+762.897+488.996+762.897C488.996+762.897+455.33+584.413+459.824+567.635C468.411+535.57+489.313+477.217+509.661+448.575C511.599+445.846+517.379+431.99+517.379+431.99C517.379+431.99+442.813+437.106+442.813+426.856C442.813+424.842+504.809+348.307+505.802+318.834C505.89+316.226+505.25+314.42+505.25+314.42C505.25+314.42+494.542+314.707+488.849+314.992C488.454+315.012+488.15+315.03+487.436+315.066C474.076+315.746+467.252+315.663+459.232+314.198C455.015+313.978+451.011+313.506+446.914+312.721C440.352+311.462+434.642+309.528+426.239+306.275C408.895+302.521+391.643+297.381+375.827+290.651C374.129+290.102+372.3+289.599+370.555+288.989C358.615+284.813+348.46+279.927+339.354+273.66C338.203+272.868+336.833+272.008+335.167+271.019C333.956+270.299+332.633+269.538+330.808+268.507C330.464+268.312+326.686+266.193+325.95+265.774C322.61+263.869+319.91+262.215+317.439+260.603Z" vectornator:shadowOffset="10" fill="#41345c" opacity="1" vectornator:shadowAngle="1.5708"/>
<path vectornator:shadowColor="#000000" vectornator:shadowOpacity="0.333" vectornator:shadowRadius="10" d="" vectornator:shadowOffset="10" fill="none" opacity="1" vectornator:shadowAngle="1.5708"/>
</g>
<path vectornator:shadowColor="#000000" vectornator:shadowOpacity="0.333" vectornator:shadowRadius="10" d="M348.864+541.179L219.166+755.945L196.654+790.136L490.67+763.256L282.625+728.245L378.448+661.207C378.448+661.207+349.929+662.417+342.535+632.412C335.141+602.407+348.864+541.179+348.864+541.179Z" vectornator:shadowOffset="10" fill="#30224c" opacity="1" vectornator:shadowAngle="1.5708"/>
<g opacity="1">
<path d="M223.161+435.433C223.161+435.433+261.915+419.994+286.225+400.718C310.535+381.442+323.57+362.349+323.57+362.349C323.57+362.349+334.745+396.75+349.278+413.377C363.811+430.004+408.777+439.287+408.777+439.287" opacity="1" fill="#30224c"/>
<path/>
</g>
<g vectornator:shadowOffset="10" vectornator:shadowOpacity="0.333" vectornator:shadowAngle="1.5708" vectornator:shadowColor="#000000" opacity="1" vectornator:shadowRadius="10">
<path vectornator:shadowColor="#000000" vectornator:shadowOpacity="0.333" vectornator:shadowRadius="10" d="M97.4298+995.567L517.278+901.88L707.803+976.275" vectornator:shadowOffset="10" fill="#30224c" opacity="1" vectornator:shadowAngle="1.5708"/>
<path/>
</g>
</g>
<g id="레이어 1" vectornator:layerName="레이어 1">
<path vectornator:shadowColor="#000000" vectornator:shadowOpacity="0.333" vectornator:shadowRadius="10" d="M458.625+8.96592C439.937+20.4448+415.41+69.5302+415.41+69.5302L389.395+105.725L224.619+64.8204C224.619+64.8204+219.487+78.1202+242.2+102.246C264.912+126.371+315.469+161.322+315.469+161.322C315.469+161.322+418.815+218.857+524.796+257.564C716.683+327.648+816.675+319.598+804.033+310.923C761.736+281.894+660.525+211.462+660.525+211.462C660.525+211.462+660.98+173.201+658.868+142.246C655.96+99.636+662.453+145.127+652.386+91.1591C642.318+37.1914+619.583+57.8614+559.238+34.5851C496.767+10.4887+495.213-13.5071+458.625+8.96592Z" vectornator:shadowOffset="10" fill="#322943" opacity="1" vectornator:shadowAngle="1.5708"/>
<g vectornator:shadowOffset="10" vectornator:shadowOpacity="0.333" vectornator:shadowAngle="1.5708" vectornator:shadowColor="#000000" opacity="1" vectornator:shadowRadius="10">
<path vectornator:shadowColor="#000000" vectornator:shadowOpacity="0.333" vectornator:shadowRadius="10" d="M439.716+756.724C439.428+756.868+439.14+757.028+438.853+757.171C439.036+757.115+439.246+757.079+439.428+757.022L439.716+756.724Z" vectornator:shadowOffset="10" fill="#909090" opacity="1" vectornator:shadowAngle="1.5708"/>
<path/>
</g>
<g vectornator:shadowOffset="10" vectornator:shadowOpacity="0.333" vectornator:shadowAngle="1.5708" vectornator:shadowColor="#000000" opacity="1" vectornator:shadowRadius="10">
<path vectornator:shadowColor="#000000" vectornator:shadowOpacity="0.333" vectornator:shadowRadius="10" d="M389.052+105.291C389.052+105.291+446.21+147.47+514.389+173.276C582.568+199.083+660.547+209.838+660.547+209.838L693.723+234.396C693.723+234.396+598.253+229.164+506.902+193.195C415.55+157.225+338.687+92.8458+338.687+92.8458L389.052+105.291Z" vectornator:shadowOffset="10" fill="#52446f" opacity="1" vectornator:shadowAngle="1.5708"/>
<path/>
</g>
</g>
<g id="레이어 10" vectornator:layerName="레이어 10">
<g opacity="1">
<path d="M523.723+254.744L595.884+279.613L591.43+295.652L584.48+293.663L582.692+300.297L577.032+298.864L575.725+304.117L533.885+290.316L528.11+288.365L530.052+282.673L524.119+280.622L526.738+272.475L519.411+270.868L523.723+254.744Z" opacity="1" fill="#000000"/>
<path d="" opacity="1" fill="none"/>
</g>
<g opacity="1">
<path d="M621.038+288.211L659.256+298.487L657.167+302.515L652.87+302.987L651.679+308.151L647.161+308.244L645.949+314.004L627.105+312.186L627.426+309.12L623.326+308.017L623.536+304.137L619.744+303.024L621.038+288.211Z" opacity="1" fill="#000000"/>
<path d="" opacity="1" fill="none"/>
</g>
<g opacity="1">
<path d="M589.637+277.326L625.921+289.437L623.615+295.03L587.095+284.107L589.637+277.326Z" opacity="1" fill="#000000"/>
<path d="" opacity="1" fill="none"/>
</g>
<path d="M395.316+217.078L403.085+210.549L413.276+214.24L528.986+256.555L525.491+264.76L406.893+218.017L385.431+239.312L395.316+217.078Z" opacity="1" fill="#000000"/>
<g opacity="1">
<path d="M580.38+277.461L585.252+277.461L585.252+286.648L580.38+286.648L580.38+277.461Z" opacity="1" fill="#000000"/>
<path/>
</g>
<g opacity="1">
<path d="M530.057+265.933L536.736+267.453L534.89+272.992L528.157+271.2L530.057+265.933Z" opacity="1" fill="#ffffff"/>
<path/>
</g>
<g opacity="1">
<path d="M535.378+273.86L542.057+275.381L540.211+280.919L533.478+279.127L535.378+273.86Z" opacity="1" fill="#ffffff"/>
<path/>
</g>
<g opacity="1">
<path d="M540.428+281.896L547.107+283.417L545.26+288.955L538.528+287.163L540.428+281.896Z" opacity="1" fill="#ffffff"/>
<path/>
</g>
<g opacity="1">
<path d="M543.957+270.114L550.636+271.634L548.79+277.172L542.057+275.381L543.957+270.114Z" opacity="1" fill="#ffffff"/>
<path/>
</g>
<g opacity="1">
<path d="M549.224+277.661L555.903+279.181L554.057+284.72L547.324+282.928L549.224+277.661Z" opacity="1" fill="#ffffff"/>
<path/>
</g>
<g opacity="1">
<path d="M554.057+284.883L560.735+286.403L558.889+291.941L552.156+290.149L554.057+284.883Z" opacity="1" fill="#ffffff"/>
<path/>
</g>
<g opacity="1">
<path d="M624.511+298.255L627.334+299.121L627.451+303.355L624.558+302.298L624.511+298.255Z" opacity="1" fill="#ffffff"/>
<path/>
</g>
<g opacity="1">
<path d="M627.379+303.392L630.152+304.103L630.182+307.851L627.343+306.973L627.379+303.392Z" opacity="1" fill="#ffffff"/>
<path/>
</g>
<g opacity="1">
<path d="M631.503+307.884L634.383+308.197L634.432+311.498L631.484+311.045L631.503+307.884Z" opacity="1" fill="#ffffff"/>
<path/>
</g>
<g opacity="1">
<path d="M631.593+300.964L634.452+301.615L634.434+305.243L631.509+304.431L631.593+300.964Z" opacity="1" fill="#ffffff"/>
<path/>
</g>
<g opacity="1">
<path d="M634.327+304.686L637.186+305.337L637.168+308.965L634.243+308.152L634.327+304.686Z" opacity="1" fill="#ffffff"/>
<path/>
</g>
<g opacity="1">
<path d="M636.977+308.847L639.723+308.913L640.034+312.149L637.212+311.952L636.977+308.847Z" opacity="1" fill="#ffffff"/>
<path/>
</g>
</g>
</svg>
