<?xml version="1.0" encoding="UTF-8" standalone="no"?> <!-- Created with Vectornator for iOS (http://vectornator.io/) --><!DOCTYPE svg PUBLIC "-//W3C//DTD SVG 1.1//EN" "http://www.w3.org/Graphics/SVG/1.1/DTD/svg11.dtd">
<svg height="100%" style="fill-rule:nonzero;clip-rule:evenodd;stroke-linecap:round;stroke-linejoin:round;" xmlns:xlink="http://www.w3.org/1999/xlink" xmlns="http://www.w3.org/2000/svg" xml:space="preserve" width="100%" xmlns:vectornator="http://vectornator.io" version="1.1" viewBox="0 0 100 100">
<metadata>
<vectornator:setting key="DimensionsVisible" value="1"/>
<vectornator:setting key="PencilOnly" value="0"/>
<vectornator:setting key="SnapToPoints" value="0"/>
<vectornator:setting key="GuidesVisible" value="1"/>
<vectornator:setting key="RulersVisible" value="1"/>
<vectornator:setting key="OutlineMode" value="0"/>
<vectornator:setting key="SnapToEdges" value="1"/>
<vectornator:setting key="CMYKEnabledKey" value="0"/>
<vectornator:setting key="DisplayWhiteBackground" value="0"/>
<vectornator:setting key="doHistoryDisabled" value="0"/>
<vectornator:setting key="SnapToGuides" value="1"/>
<vectornator:setting key="TimeLapseWatermarkDisabled" value="0"/>
<vectornator:setting key="DynamicGuides" value="0"/>
<vectornator:setting key="SnapToGrid" value="0"/>
<vectornator:setting key="Units" value="Pixels"/>
<vectornator:setting key="IsolateActiveLayer" value="0"/>
</metadata>
<defs/>
<g id="레이어 1" vectornator:layerName="레이어 1">
<path vectornator:shadowColor="#000000" vectornator:shadowOpacity="0.333" vectornator:shadowRadius="9.9031" d="M83.9787+55.5252C80.5887+54.2252+78.8987+52.0252+78.8287+48.7752C78.7587+45.3752+80.4387+43.0452+83.9787+41.6752C84.3987+41.5252+84.6587+41.0952+84.5987+40.6552C84.3687+38.2552+81.6887+31.7852+80.2587+30.1652C79.9687+29.8352+79.4887+29.7352+79.0887+29.9252C75.7387+31.4952+72.9387+31.1052+70.5487+28.7352C68.1387+26.3552+67.7387+23.5152+69.3287+20.0652C69.5287+19.6052+69.3787+19.0552+68.9487+18.7952C65.7587+16.8252+62.2987+15.3952+58.6787+14.5652C58.1887+14.4452+57.6887+14.7152+57.5187+15.2052C56.3887+18.4852+54.2587+20.2652+51.1987+20.4952C47.4987+20.7652+45.0187+19.0452+43.6087+15.2152C43.4187+14.7352+42.9287+14.4752+42.4287+14.6052C38.7587+15.4952+35.3187+16.9352+32.2087+18.8852C31.7787+19.1552+31.6287+19.7052+31.8487+20.1552C33.4487+23.5452+33.0787+26.3752+30.7187+28.7752C28.3387+31.2052+25.5087+31.6152+22.0687+30.0352C21.6087+29.8152+21.0687+29.9752+20.7987+30.4152C18.8687+33.6052+17.4687+37.0652+16.6487+40.6852C16.5287+41.1752+16.7887+41.6652+17.2687+41.8452C20.7087+43.0952+22.4187+45.3052+22.4987+48.5752C22.5687+51.9952+20.8887+54.3152+17.3587+55.6852C16.8887+55.8652+16.6387+56.3652+16.7487+56.8552C17.6187+60.4352+19.0687+63.8552+21.0487+67.0152C21.3087+67.4452+21.8287+67.6052+22.2787+67.4052C25.6187+65.9152+28.3787+66.3152+30.7187+68.5852C33.1187+70.9252+33.5687+73.7152+32.0987+77.1052C31.9087+77.5552+32.0687+78.0852+32.4887+78.3552C35.6687+80.2852+39.1087+81.6952+42.7087+82.5152C42.7687+82.5352+42.8287+82.5352+42.8987+82.5352C43.2887+82.5352+43.6787+82.2752+43.8487+81.9252C43.9087+81.8152+43.9487+81.7452+43.9687+81.6752C45.0987+78.7052+47.6287+76.8552+50.5387+76.8152C50.5687+76.8052+50.6087+76.8052+50.6387+76.8052C53.7187+76.8052+56.2487+78.5652+57.4287+81.5052C57.6587+82.0552+58.1587+82.6552+59.2287+82.3852C62.4987+81.5552+65.6187+80.2552+68.5187+78.5252C68.6387+78.4452+68.7587+78.3652+68.8687+78.3052L68.9787+78.2252C69.3887+77.9652+69.5287+77.4352+69.3487+76.9952C67.9787+73.9052+68.2387+71.2952+70.1887+69.0452C72.5487+66.2752+75.4687+65.7052+79.1187+67.2652C79.5687+67.4452+80.0987+67.2852+80.3587+66.8652C82.3187+63.6952+83.7487+60.2752+84.5887+56.6852C84.7087+56.2052+84.4487+55.7052+83.9787+55.5252ZM50.6187+71.5352C37.9187+71.5352+27.6187+61.2352+27.6187+48.5352C27.6187+35.8352+37.9187+25.5352+50.6187+25.5352C63.3187+25.5352+73.6187+35.8352+73.6187+48.5352C73.6187+61.2352+63.3187+71.5352+50.6187+71.5352Z" vectornator:shadowOffset="7.48062" fill="#856d5c" opacity="1" vectornator:shadowAngle="1.54424"/>
<path vectornator:shadowColor="#000000" vectornator:shadowOpacity="0.333" vectornator:shadowRadius="9.9031" d="M50.6187+65.5352C46.1357+65.5352+41.7967+63.7262+38.6167+60.5532L47.0877+55.7072C49.2947+56.7932+51.9517+56.7902+54.1507+55.7062L62.6237+60.5502C59.4427+63.7252+55.1027+65.5352+50.6187+65.5352ZM58.5877+49.2002C58.6077+48.9732+58.6187+48.7522+58.6187+48.5352C58.6187+45.6702+57.0947+43.0462+54.6187+41.6142L54.6187+32.0312C56.8357+32.5722+58.9607+33.5772+60.7987+34.9582L60.9777+35.0922C61.0947+35.1802+61.2107+35.2672+61.3257+35.3612C61.3967+35.4192+61.4647+35.4782+61.5337+35.5402L61.6737+35.6612C63.9457+37.6302+65.6727+40.1702+66.6647+43.0042C67.2977+44.8322+67.6187+46.6932+67.6187+48.5352C67.6187+50.3402+67.3317+52.1192+66.7657+53.8332L58.5877+49.2002ZM42.6487+49.1942L34.4667+53.8142C34.1127+52.7352+33.8687+51.6202+33.7397+50.4982L33.6917+49.9902C33.6507+49.5092+33.6187+49.0262+33.6187+48.5352C33.6187+46.6942+33.9397+44.8332+34.5717+43.0062C35.5657+40.1692+37.2917+37.6302+39.5647+35.6602L39.7057+35.5372C39.7737+35.4772+39.8417+35.4182+39.9147+35.3582C40.0267+35.2662+40.1437+35.1792+40.2627+35.0902L40.4367+34.9592C42.2767+33.5772+44.4027+32.5712+46.6197+32.0302L46.6197+41.6132C44.1437+43.0452+42.6197+45.6692+42.6197+48.5342C42.6187+48.7512+42.6287+48.9702+42.6487+49.1942ZM50.6187+25.5352C37.9187+25.5352+27.6187+35.8352+27.6187+48.5352C27.6187+61.2352+37.9187+71.5352+50.6187+71.5352C63.3187+71.5352+73.6187+61.2352+73.6187+48.5352C73.6187+35.8352+63.3187+25.5352+50.6187+25.5352Z" vectornator:shadowOffset="7.48062" fill="#4a382c" opacity="1" vectornator:shadowAngle="1.54424"/>
<path vectornator:shadowColor="#000000" vectornator:shadowOpacity="0.333" vectornator:shadowRadius="9.9031" d="M84.3367+54.5962C81.3187+53.4392+79.8867+51.5832+79.8257+48.7572C79.7647+45.7822+81.1997+43.8292+84.3347+42.6122C85.1807+42.2892+85.6997+41.4372+85.5997+40.5552C85.3427+37.9682+82.5517+31.2532+81.0067+29.5032C80.4257+28.8412+79.4637+28.6402+78.6697+29.0192C75.6957+30.4102+73.3377+30.0962+71.2487+28.0312C69.1457+25.9502+68.8227+23.5512+70.2347+20.4742C70.6547+19.5502+70.3237+18.4612+69.4717+17.9472C66.1627+15.9102+62.6097+14.4432+58.9147+13.5902C57.9117+13.3512+56.9117+13.9062+56.5737+14.8832C55.5697+17.7922+53.7897+19.3032+51.1327+19.5022C47.8897+19.7292+45.7967+18.2652+44.5367+14.8672C44.1777+13.9092+43.1627+13.3802+42.1917+13.6312C38.4197+14.5502+34.8827+16.0332+31.6797+18.0412C30.8227+18.5812+30.5057+19.6782+30.9417+20.5902C32.3697+23.6012+32.0737+25.9772+30.0077+28.0722C27.9297+30.1982+25.5397+30.5312+22.4977+29.1332C21.5697+28.6862+20.4707+29.0232+19.9507+29.9032C17.9607+33.1742+16.5207+36.7272+15.6747+40.4472C15.4327+41.4362+15.9757+42.4392+16.9257+42.7762C19.9727+43.8962+21.4237+45.7482+21.4927+48.6032C21.5617+51.5832+20.1337+53.5402+17.0027+54.7552C16.0687+55.1122+15.5447+56.1152+15.7817+57.0862C16.6677+60.7562+18.1527+64.2742+20.1957+67.5452C20.7297+68.3992+21.7797+68.7212+22.6927+68.3152C25.6447+66.9962+27.9747+67.3072+30.0247+69.3012C32.1207+71.3482+32.4897+73.7012+31.1897+76.7012C30.7897+77.6042+31.1227+78.6792+31.9717+79.2032C35.2657+81.2042+38.8027+82.6462+42.3947+83.4662C42.6077+83.5352+42.7887+83.5352+42.8967+83.5352C43.6717+83.5352+44.4177+83.0572+44.7087+82.4322C44.8177+82.2492+44.8857+82.0992+44.9037+82.0262C45.8857+79.4562+48.0497+77.8432+50.5517+77.8172L50.7297+77.8082C53.3387+77.8412+55.4937+79.3562+56.5087+81.8862C57.0337+83.1442+58.1447+83.6912+59.4727+83.3452C62.8027+82.5062+66.0187+81.1752+69.0777+79.3582L69.5137+79.0632C70.3317+78.5432+70.6487+77.5062+70.2587+76.5812C69.0437+73.8392+69.2597+71.6502+70.9387+69.6912C73.0057+67.2742+75.4807+66.7922+78.7337+68.1822C79.6317+68.5632+80.6917+68.2202+81.2067+67.3902C83.2207+64.1392+84.6867+60.6152+85.5667+56.9132L85.5687+56.9052C85.7887+55.9422+85.2597+54.9492+84.3367+54.5962ZM79.5157+66.3422C75.4577+64.6112+72.0627+65.2992+69.4187+68.3912C67.2407+70.9312+66.9077+73.9582+68.3907+77.4102L68.0087+77.6692C65.1627+79.3582+62.1257+80.6152+58.9767+81.4092C58.6127+81.5052+58.4927+81.4452+58.3587+81.1292C57.0217+77.7982+54.1357+75.8092+50.6397+75.8092L50.3807+75.8192L50.3707+75.8222C47.0977+75.9222+44.2957+78.0132+43.0347+81.3152L42.8847+81.4932L42.8677+81.5282C39.4187+80.7302+36.1027+79.3742+33.0217+77.5062C34.6527+73.7422+34.1157+70.5012+31.4217+67.8702C29.8117+66.3062+27.9907+65.5222+25.9797+65.5222C24.6927+65.5222+23.3287+65.8422+21.8927+66.4852C19.9637+63.3982+18.5627+60.0792+17.7237+56.6232C21.6417+55.1022+23.5837+52.3882+23.4937+48.5572C23.4047+44.8772+21.4277+42.3012+17.6217+40.9082C18.4237+37.3842+19.7827+34.0312+21.6487+30.9452C25.4697+32.7062+28.7637+32.2102+31.4357+29.4762C34.0947+26.7802+34.5367+23.5022+32.7447+19.7382C35.7647+17.8442+39.1017+16.4452+42.6627+15.5692C44.2327+19.8042+47.1327+21.7972+51.2797+21.4992C54.7227+21.2422+57.2077+19.1812+58.4557+15.5402C61.9467+16.3472+65.2997+17.7302+68.4147+19.6472C66.6557+23.4782+67.1357+26.7782+69.8417+29.4562C72.5307+32.1162+75.7867+32.5802+79.5047+30.8292C80.7847+32.2792+83.3927+38.5882+83.6147+40.7482C79.6947+42.2702+77.7467+44.9792+77.8247+48.8022C77.9027+52.4422+79.8517+55.0212+83.6167+56.4662C82.7877+59.9502+81.4037+63.2722+79.5157+66.3422Z" vectornator:shadowOffset="7.48062" fill="#382c23" opacity="1" vectornator:shadowAngle="1.54424"/>
<path vectornator:shadowColor="#000000" vectornator:shadowOpacity="0.333" vectornator:shadowRadius="9.9031" d="M50.6187+72.5352C37.3857+72.5352+26.6187+61.7682+26.6187+48.5352C26.6187+35.3022+37.3857+24.5352+50.6187+24.5352C52.8727+24.5352+55.1057+24.8492+57.2577+25.4692C57.5227+25.5452+57.6757+25.8232+57.5997+26.0882C57.5227+26.3532+57.2477+26.5072+56.9807+26.4302C54.9187+25.8362+52.7787+25.5352+50.6187+25.5352C37.9357+25.5352+27.6187+35.8522+27.6187+48.5352C27.6187+61.2182+37.9357+71.5352+50.6187+71.5352C63.3017+71.5352+73.6187+61.2182+73.6187+48.5352C73.6187+42.3452+71.1847+36.5342+66.7667+32.1732C66.5707+31.9802+66.5687+31.6632+66.7627+31.4662C66.9557+31.2712+67.2727+31.2672+67.4697+31.4622C72.0797+36.0122+74.6187+42.0752+74.6187+48.5352C74.6187+61.7682+63.8517+72.5352+50.6187+72.5352ZM65.1187+30.5542C65.0107+30.5542+64.9007+30.5192+64.8087+30.4472C64.4897+30.1962+64.1627+29.9532+63.8297+29.7192C63.6037+29.5602+63.5507+29.2472+63.7087+29.0222C63.8677+28.7972+64.1797+28.7432+64.4057+28.9012C64.7527+29.1462+65.0937+29.3992+65.4267+29.6622C65.6437+29.8332+65.6807+30.1472+65.5097+30.3642C65.4127+30.4882+65.2657+30.5542+65.1187+30.5542Z" vectornator:shadowOffset="7.48062" fill="#382c23" opacity="1" vectornator:shadowAngle="1.54424"/>
<path vectornator:shadowColor="#000000" vectornator:shadowOpacity="0.333" vectornator:shadowRadius="9.9031" d="M67.0407+55.0632C66.9557+55.0632+66.8697+55.0422+66.7947+54.9982L57.8087+49.9072C57.6307+49.8072+57.5327+49.6092+57.5587+49.4072C57.5977+49.1032+57.6187+48.8162+57.6187+48.5352C57.6187+45.9792+56.1527+43.5522+53.8847+42.3512C53.7217+42.2642+53.6187+42.0952+53.6187+41.9092L53.6187+40.1042C53.6187+39.8282+53.8427+39.6042+54.1187+39.6042C54.3947+39.6042+54.6187+39.8282+54.6187+40.1042L54.6187+41.6142C57.0947+43.0462+58.6187+45.6702+58.6187+48.5352C58.6187+48.7522+58.6077+48.9732+58.5877+49.2002L66.7667+53.8332C67.3317+52.1192+67.6187+50.3402+67.6187+48.5352C67.6187+46.6932+67.2977+44.8322+66.6637+43.0032C65.6717+40.1692+63.9447+37.6292+61.6727+35.6602L61.5327+35.5392C61.4637+35.4772+61.3957+35.4182+61.3247+35.3602C61.2107+35.2662+61.0947+35.1792+60.9767+35.0912L60.7977+34.9572C58.9597+33.5762+56.8347+32.5712+54.6177+32.0302L54.6177+37.0352C54.6177+37.3112+54.3937+37.5352+54.1177+37.5352C53.8417+37.5352+53.6187+37.3112+53.6187+37.0352L53.6187+31.4062C53.6187+31.2562+53.6857+31.1142+53.8027+31.0182C53.9197+30.9242+54.0737+30.8862+54.2197+30.9152C56.7957+31.4432+59.2797+32.5642+61.4007+34.1582L61.5787+34.2912C61.7047+34.3862+61.8327+34.4822+61.9567+34.5842C62.0357+34.6472+62.1147+34.7172+62.1927+34.7862L62.3297+34.9042C64.7327+36.9862+66.5587+39.6732+67.6087+42.6732C68.2787+44.6102+68.6187+46.5822+68.6187+48.5352C68.6187+50.6542+68.2457+52.7402+67.5097+54.7362C67.4587+54.8742+67.3507+54.9822+67.2127+55.0332C67.1567+55.0542+67.0977+55.0632+67.0407+55.0632ZM34.1907+55.0452C34.1317+55.0452+34.0737+55.0352+34.0177+55.0142C33.8797+54.9642+33.7717+54.8552+33.7207+54.7172C33.2357+53.3922+32.9077+52.0072+32.7447+50.6022L32.6957+50.0812C32.6607+49.6582+32.6187+49.1042+32.6187+48.5352C32.6187+46.5822+32.9587+44.6112+33.6277+42.6782C34.6797+39.6752+36.5057+36.9892+38.9087+34.9072L39.0467+34.7872C39.1237+34.7192+39.2027+34.6492+39.2837+34.5842C39.4057+34.4842+39.5337+34.3882+39.6627+34.2922L39.8347+34.1622C41.9577+32.5672+44.4417+31.4452+47.0187+30.9172C47.1657+30.8872+47.3177+30.9252+47.4357+31.0202C47.5517+31.1142+47.6187+31.2562+47.6187+31.4062L47.6187+41.9092C47.6187+42.0952+47.5157+42.2642+47.3527+42.3512C45.0847+43.5522+43.6187+45.9792+43.6187+48.5352C43.6187+48.8152+43.6387+49.1002+43.6787+49.4012C43.7047+49.6032+43.6067+49.8012+43.4287+49.9022L34.4377+54.9802C34.3607+55.0232+34.2757+55.0452+34.1907+55.0452ZM46.6187+32.0312C44.4017+32.5722+42.2757+33.5782+40.4357+34.9602L40.2617+35.0912C40.1427+35.1802+40.0267+35.2672+39.9137+35.3592C39.8407+35.4192+39.7727+35.4782+39.7047+35.5382L39.5637+35.6612C37.2907+37.6312+35.5647+40.1702+34.5707+43.0072C33.9397+44.8332+33.6187+46.6942+33.6187+48.5352C33.6187+49.0262+33.6507+49.5092+33.6927+49.9902L33.7407+50.4982C33.8697+51.6202+34.1137+52.7352+34.4677+53.8142L42.6497+49.1942C42.6287+48.9702+42.6187+48.7512+42.6187+48.5352C42.6187+45.6702+44.1427+43.0462+46.6187+41.6142L46.6187+32.0312ZM43.1327+64.8442C43.0607+64.8442+42.9867+64.8282+42.9177+64.7952C42.5617+64.6252+42.2097+64.4442+41.8647+64.2522C41.6237+64.1172+41.5377+63.8132+41.6727+63.5712C41.8077+63.3292+42.1127+63.2442+42.3537+63.3792C42.6787+63.5622+43.0107+63.7332+43.3477+63.8932C43.5967+64.0112+43.7027+64.3102+43.5837+64.5592C43.4987+64.7382+43.3187+64.8442+43.1327+64.8442Z" vectornator:shadowOffset="7.48062" fill="#382c23" opacity="1" vectornator:shadowAngle="1.54424"/>
<path vectornator:shadowColor="#000000" vectornator:shadowOpacity="0.333" vectornator:shadowRadius="9.9031" d="M50.6187+66.5352C49.0587+66.5352+47.5067+66.3312+46.0027+65.9302C45.7357+65.8592+45.5767+65.5842+45.6487+65.3182C45.7197+65.0522+45.9927+64.8952+46.2607+64.9642C47.6807+65.3432+49.1457+65.5352+50.6187+65.5352C55.1027+65.5352+59.4427+63.7252+62.6237+60.5502L54.1507+55.7062C51.9517+56.7902+49.2947+56.7932+47.0877+55.7072L38.6167+60.5532C39.1767+61.1122+39.7757+61.6332+40.4037+62.1072C40.6247+62.2732+40.6687+62.5862+40.5027+62.8072C40.3357+63.0292+40.0217+63.0702+39.8027+62.9062C38.9597+62.2702+38.1667+61.5542+37.4457+60.7792C37.3417+60.6672+37.2947+60.5132+37.3177+60.3632C37.3397+60.2122+37.4307+60.0802+37.5637+60.0052L46.8277+54.7062C46.9747+54.6202+47.1607+54.6172+47.3117+54.6992C49.3537+55.7972+51.8887+55.7962+53.9267+54.6982C54.0797+54.6152+54.2617+54.6192+54.4117+54.7052L63.6777+60.0022C63.8107+60.0772+63.9017+60.2092+63.9237+60.3602C63.9467+60.5102+63.8997+60.6642+63.7957+60.7762C60.3927+64.4352+55.5907+66.5352+50.6187+66.5352Z" vectornator:shadowOffset="7.48062" fill="#382c23" opacity="1" vectornator:shadowAngle="1.54424"/>
<path stroke="#382c23" vectornator:shadowColor="#000000" vectornator:shadowOffset="7.48062" stroke-width="0.8656" fill="#856d5c" stroke-linecap="butt" vectornator:shadowAngle="1.54424" stroke-linejoin="miter" opacity="1" vectornator:shadowRadius="9.9031" d="M45.1728+48.6677C45.1728+45.5828+47.6736+43.0821+50.7585+43.0821C53.8434+43.0821+56.3442+45.5828+56.3442+48.6677C56.3442+51.7526+53.8434+54.2534+50.7585+54.2534C47.6736+54.2534+45.1728+51.7526+45.1728+48.6677Z" vectornator:shadowOpacity="0.333"/>
</g>
</svg>
